<?xml version="1.0" encoding="UTF-8"?>
<svg id="Layer_1" data-name="Layer 1" xmlns="http://www.w3.org/2000/svg" xmlns:xlink="http://www.w3.org/1999/xlink" viewBox="0 0 35.13 39.86">
  <defs>
    <style>
      .cls-1 {
        fill: url(#New_Gradient_Swatch_1-34);
        stroke: url(#New_Gradient_Swatch_1-35);
      }

      .cls-1, .cls-2, .cls-3, .cls-4, .cls-5, .cls-6, .cls-7, .cls-8, .cls-9, .cls-10, .cls-11, .cls-12, .cls-13, .cls-14, .cls-15, .cls-16, .cls-17, .cls-18, .cls-19 {
        stroke-miterlimit: 10;
      }

      .cls-2 {
        fill: url(#New_Gradient_Swatch_1-14);
        stroke: url(#New_Gradient_Swatch_1-15);
      }

      .cls-3 {
        fill: url(#New_Gradient_Swatch_1-20);
        stroke: url(#New_Gradient_Swatch_1-21);
      }

      .cls-4 {
        fill: url(#New_Gradient_Swatch_1-26);
        stroke: url(#New_Gradient_Swatch_1-27);
      }

      .cls-5 {
        fill: url(#New_Gradient_Swatch_1-28);
        stroke: url(#New_Gradient_Swatch_1-29);
      }

      .cls-6 {
        fill: url(#New_Gradient_Swatch_1-30);
        stroke: url(#New_Gradient_Swatch_1-31);
      }

      .cls-7 {
        fill: url(#New_Gradient_Swatch_1-16);
        stroke: url(#New_Gradient_Swatch_1-17);
      }

      .cls-8 {
        fill: url(#New_Gradient_Swatch_1-8);
        stroke: url(#New_Gradient_Swatch_1-9);
      }

      .cls-9 {
        fill: url(#New_Gradient_Swatch_1-32);
        stroke: url(#New_Gradient_Swatch_1-33);
      }

      .cls-10 {
        stroke: url(#New_Gradient_Swatch_1-13);
      }

      .cls-10, .cls-15, .cls-17 {
        fill: #000;
      }

      .cls-11 {
        fill: url(#New_Gradient_Swatch_1-24);
        stroke: url(#New_Gradient_Swatch_1-25);
      }

      .cls-12 {
        fill: url(#New_Gradient_Swatch_1-5);
        stroke: url(#New_Gradient_Swatch_1-6);
      }

      .cls-13 {
        fill: url(#New_Gradient_Swatch_1-10);
        stroke: url(#New_Gradient_Swatch_1-11);
      }

      .cls-14 {
        fill: url(#New_Gradient_Swatch_1);
        stroke: url(#New_Gradient_Swatch_1-2);
      }

      .cls-15 {
        stroke: url(#New_Gradient_Swatch_1-12);
      }

      .cls-16 {
        fill: url(#New_Gradient_Swatch_1-18);
        stroke: url(#New_Gradient_Swatch_1-19);
      }

      .cls-17 {
        stroke: url(#New_Gradient_Swatch_1-7);
      }

      .cls-18 {
        fill: url(#New_Gradient_Swatch_1-3);
        stroke: url(#New_Gradient_Swatch_1-4);
      }

      .cls-19 {
        fill: url(#New_Gradient_Swatch_1-22);
        stroke: url(#New_Gradient_Swatch_1-23);
      }
    </style>
    <linearGradient id="New_Gradient_Swatch_1" data-name="New Gradient Swatch 1" x1=".5" y1="19.93" x2="34.63" y2="19.93" gradientUnits="userSpaceOnUse">
      <stop offset="0" stop-color="#ffbc5e"/>
      <stop offset="1" stop-color="#ffda6d"/>
    </linearGradient>
    <linearGradient id="New_Gradient_Swatch_1-2" data-name="New Gradient Swatch 1" x1="0" x2="35.13" xlink:href="#New_Gradient_Swatch_1"/>
    <linearGradient id="New_Gradient_Swatch_1-3" data-name="New Gradient Swatch 1" x1="24.71" y1="5.68" x2="30.15" y2="5.68" xlink:href="#New_Gradient_Swatch_1"/>
    <linearGradient id="New_Gradient_Swatch_1-4" data-name="New Gradient Swatch 1" x1="23.9" y1="5.78" x2="30.65" y2="5.78" xlink:href="#New_Gradient_Swatch_1"/>
    <linearGradient id="New_Gradient_Swatch_1-5" data-name="New Gradient Swatch 1" x1="7.47" y1="5.68" x2="12.7" y2="5.68" xlink:href="#New_Gradient_Swatch_1"/>
    <linearGradient id="New_Gradient_Swatch_1-6" data-name="New Gradient Swatch 1" x1="6.97" y1="5.78" x2="13.51" y2="5.78" xlink:href="#New_Gradient_Swatch_1"/>
    <linearGradient id="New_Gradient_Swatch_1-7" data-name="New Gradient Swatch 1" x1="13.37" y1="17.73" x2="24.57" y2="17.73" xlink:href="#New_Gradient_Swatch_1"/>
    <linearGradient id="New_Gradient_Swatch_1-8" data-name="New Gradient Swatch 1" x1="21.8" y1="12.56" x2="25.48" y2="12.56" xlink:href="#New_Gradient_Swatch_1"/>
    <linearGradient id="New_Gradient_Swatch_1-9" data-name="New Gradient Swatch 1" x1="21.3" y1="12.56" x2="25.98" y2="12.56" xlink:href="#New_Gradient_Swatch_1"/>
    <linearGradient id="New_Gradient_Swatch_1-10" data-name="New Gradient Swatch 1" x1="12.67" y1="12.28" x2="16.36" y2="12.28" xlink:href="#New_Gradient_Swatch_1"/>
    <linearGradient id="New_Gradient_Swatch_1-11" data-name="New Gradient Swatch 1" x1="12.17" y1="12.28" x2="16.86" y2="12.28" xlink:href="#New_Gradient_Swatch_1"/>
    <linearGradient id="New_Gradient_Swatch_1-12" data-name="New Gradient Swatch 1" x1="23.15" y1="9.35" x2="26.83" y2="9.35" xlink:href="#New_Gradient_Swatch_1"/>
    <linearGradient id="New_Gradient_Swatch_1-13" data-name="New Gradient Swatch 1" x1="11.44" y1="8.81" x2="15.1" y2="8.81" xlink:href="#New_Gradient_Swatch_1"/>
    <linearGradient id="New_Gradient_Swatch_1-14" data-name="New Gradient Swatch 1" x1="25.67" y1="34.91" x2="31.11" y2="34.91" xlink:href="#New_Gradient_Swatch_1"/>
    <linearGradient id="New_Gradient_Swatch_1-15" data-name="New Gradient Swatch 1" x1="25.17" y1="34.91" x2="31.61" y2="34.91" xlink:href="#New_Gradient_Swatch_1"/>
    <linearGradient id="New_Gradient_Swatch_1-16" data-name="New Gradient Swatch 1" x1="27.47" y1="30.17" x2="29.7" y2="30.17" xlink:href="#New_Gradient_Swatch_1"/>
    <linearGradient id="New_Gradient_Swatch_1-17" data-name="New Gradient Swatch 1" x1="26.97" y1="30.17" x2="30.2" y2="30.17" xlink:href="#New_Gradient_Swatch_1"/>
    <linearGradient id="New_Gradient_Swatch_1-18" data-name="New Gradient Swatch 1" x1="29.77" y1="30.82" x2="32.08" y2="30.82" xlink:href="#New_Gradient_Swatch_1"/>
    <linearGradient id="New_Gradient_Swatch_1-19" data-name="New Gradient Swatch 1" x1="29.27" y1="30.82" x2="32.58" y2="30.82" xlink:href="#New_Gradient_Swatch_1"/>
    <linearGradient id="New_Gradient_Swatch_1-20" data-name="New Gradient Swatch 1" x1="25.29" y1="31.34" x2="27.47" y2="31.34" xlink:href="#New_Gradient_Swatch_1"/>
    <linearGradient id="New_Gradient_Swatch_1-21" data-name="New Gradient Swatch 1" x1="24.79" y1="31.34" x2="27.97" y2="31.34" xlink:href="#New_Gradient_Swatch_1"/>
    <linearGradient id="New_Gradient_Swatch_1-22" data-name="New Gradient Swatch 1" x1="30.93" y1="32.88" x2="33.34" y2="32.88" xlink:href="#New_Gradient_Swatch_1"/>
    <linearGradient id="New_Gradient_Swatch_1-23" data-name="New Gradient Swatch 1" x1="30.43" y1="32.88" x2="33.84" y2="32.88" xlink:href="#New_Gradient_Swatch_1"/>
    <linearGradient id="New_Gradient_Swatch_1-24" data-name="New Gradient Swatch 1" x1="4.07" y1="34.91" x2="9.53" y2="34.91" xlink:href="#New_Gradient_Swatch_1"/>
    <linearGradient id="New_Gradient_Swatch_1-25" data-name="New Gradient Swatch 1" x1="3.57" y1="34.91" x2="10.03" y2="34.91" xlink:href="#New_Gradient_Swatch_1"/>
    <linearGradient id="New_Gradient_Swatch_1-26" data-name="New Gradient Swatch 1" x1="5.95" y1="30.25" x2="8.21" y2="30.25" xlink:href="#New_Gradient_Swatch_1"/>
    <linearGradient id="New_Gradient_Swatch_1-27" data-name="New Gradient Swatch 1" x1="5.45" y1="30.25" x2="8.71" y2="30.25" xlink:href="#New_Gradient_Swatch_1"/>
    <linearGradient id="New_Gradient_Swatch_1-28" data-name="New Gradient Swatch 1" x1="3.47" y1="30.66" x2="5.8" y2="30.66" xlink:href="#New_Gradient_Swatch_1"/>
    <linearGradient id="New_Gradient_Swatch_1-29" data-name="New Gradient Swatch 1" x1="2.97" y1="30.66" x2="6.31" y2="30.66" xlink:href="#New_Gradient_Swatch_1"/>
    <linearGradient id="New_Gradient_Swatch_1-30" data-name="New Gradient Swatch 1" x1="8.02" y1="31.6" x2="10.24" y2="31.6" xlink:href="#New_Gradient_Swatch_1"/>
    <linearGradient id="New_Gradient_Swatch_1-31" data-name="New Gradient Swatch 1" x1="7.52" y1="31.6" x2="10.74" y2="31.6" xlink:href="#New_Gradient_Swatch_1"/>
    <linearGradient id="New_Gradient_Swatch_1-32" data-name="New Gradient Swatch 1" x1="2.09" y1="32.62" x2="4.46" y2="32.62" xlink:href="#New_Gradient_Swatch_1"/>
    <linearGradient id="New_Gradient_Swatch_1-33" data-name="New Gradient Swatch 1" x1="1.59" y1="32.62" x2="4.96" y2="32.62" xlink:href="#New_Gradient_Swatch_1"/>
    <linearGradient id="New_Gradient_Swatch_1-34" data-name="New Gradient Swatch 1" x1="16.35" y1="17.56" x2="21.65" y2="17.56" xlink:href="#New_Gradient_Swatch_1"/>
    <linearGradient id="New_Gradient_Swatch_1-35" data-name="New Gradient Swatch 1" x1="15.85" y1="17.56" x2="22.15" y2="17.56" xlink:href="#New_Gradient_Swatch_1"/>
  </defs>
  <path class="cls-14" d="M26.9,21.58c.71,1.64,1.39,3.27,1.64,5.06.24.01.48.02.71.04,1.26.08,2.4.5,3.34,1.36,1.09,1,1.73,2.25,1.95,3.71.23,1.58.02,3.09-.68,4.54-.69,1.43-1.74,2.46-3.31,2.87-1.18.31-2.36.25-3.5-.11-1.26-.4-2.5-.88-3.75-1.32-.23-.08-.43-.13-.7-.04-1.58.54-2.91.11-4-1.12-.22-.25-.44-.35-.77-.34-.4.01-.71.11-1.02.4-.73.7-1.61,1.13-2.65,1.12-.37,0-.74-.1-1.11-.18-.17-.04-.33-.05-.5.01-1.52.51-3.04,1.03-4.57,1.52-1.11.35-2.25.37-3.38.08-1.43-.37-2.46-1.27-3.14-2.55-1.08-2.04-1.28-4.16-.45-6.32.9-2.35,3.01-3.69,5.6-3.62.27,0,.55.01.82.03.13.01.17-.04.2-.16.23-.99.56-1.94.98-2.87.38-.85.83-1.66,1.33-2.44.03-.05.06-.1.11-.17-.06-.05-.11-.09-.17-.13-1.14-.87-2.02-1.94-2.57-3.27-.66-1.57-.8-3.21-.53-4.87.12-.72.33-1.43.5-2.14.03-.13.03-.22-.08-.33-.87-.84-1.38-1.87-1.6-3.06-.34-1.85.07-3.49,1.24-4.97C8.53.14,11.86-.14,13.89,1.92c.16.16.31.35.44.53.08.11.14.13.27.07,1.41-.61,2.89-.92,4.43-.89,1.48.03,2.89.38,4.24.99.13.06.2.04.28-.07.53-.7,1.16-1.29,1.98-1.65,1.62-.71,3.95-.64,5.58,1.4,1.66,2.08,1.81,4.95.32,7.16-.24.36-.56.67-.85.99-.09.1-.11.17-.07.3.44,1.33.69,2.69.61,4.1-.09,1.48-.5,2.85-1.31,4.09-.43.65-.92,1.25-1.53,1.74-.36.29-.77.52-1.16.78-.07.05-.15.08-.21.12ZM14.13,3.72c-.12-.19-.23-.38-.36-.55-.79-1.06-1.81-1.76-3.18-1.77-1.19,0-2.21.43-2.99,1.35-.97,1.15-1.38,2.48-1.2,3.97.15,1.23.64,2.31,1.6,3.14.37.33.37.33.2.8-.5,1.39-.75,2.81-.64,4.29.14,2.03.96,3.72,2.53,5.02,1.41,1.17,3.05,1.81,4.83,2.17,2.05.41,4.12.51,6.19.29,1.43-.16,2.83-.44,4.17-.98,1.31-.52,2.46-1.27,3.36-2.38,1-1.24,1.52-2.67,1.61-4.25.08-1.5-.19-2.94-.74-4.33-.07-.18-.04-.27.11-.37.44-.32.82-.7,1.12-1.16,1.13-1.7,1.15-4.08-.04-5.76-.86-1.21-1.99-1.9-3.52-1.79-1.24.09-2.19.67-2.92,1.66-.18.25-.34.51-.5.77-3.19-1.69-6.39-1.77-9.62-.12ZM10.8,21.53c-1.16,1.75-1.98,3.61-2.4,5.63-.02.11.02.15.11.19.51.24.97.55,1.39.93,2.09,1.86,2.94,4.79,2.14,7.4-.01.05,0,.13.02.16.18.18.35.38.55.52.97.65,1.98.65,2.97.08.57-.33,1.09-.74,1.31-1.41.49-1.53.36-3-.54-4.35-.5-.75-1.08-1.45-1.66-2.14-1.13-1.36-1.54-2.89-1.12-4.62.1-.4.21-.81.32-1.23-1.08-.22-2.14-.53-3.09-1.15ZM23.36,36.25c-.37-.71-.57-1.44-.58-2.22-.03-1.33.29-2.58.91-3.76.86-1.62,2.12-2.75,3.9-3.27.03,0,.06-.03.11-.05-.29-1.74-.76-3.41-1.69-4.94-.93.43-1.9.67-2.87.87,0,.04-.01.05-.01.06.15,1.02.2,2.05.05,3.08-.13.86-.41,1.64-1.01,2.27-.73.78-1.5,1.54-2.26,2.29-.82.81-1.27,1.79-1.38,2.93-.09.99.08,1.88.84,2.6.74.69,1.58,1.06,2.6.83.51-.12.99-.33,1.39-.7ZM33.75,33.04c0-.98-.17-1.79-.49-2.55-1-2.37-3.5-3.49-5.88-2.63-1.16.42-2.03,1.22-2.71,2.22-.76,1.12-1.11,2.38-1.13,3.73-.02,1.58.65,2.8,1.98,3.64,1.14.71,2.4,1.04,3.74,1.01,1.33-.03,2.42-.57,3.22-1.64.88-1.17,1.22-2.52,1.26-3.77ZM6.27,38.45c.96-.03,2.05-.29,3.06-.84,1.15-.63,1.92-1.56,2.18-2.87.19-.95.08-1.88-.19-2.8-.49-1.64-1.42-2.95-2.94-3.79-2.1-1.16-4.67-.54-6.01,1.46-.73,1.09-1.06,2.29-.96,3.6.06.82.22,1.62.54,2.38.78,1.86,2.22,2.86,4.32,2.86ZM14.63,22.84c-.12.49-.26.95-.36,1.42-.28,1.3-.03,2.48.81,3.53.33.41.66.83.99,1.23.68.8,1.27,1.65,1.58,2.67.09.31.16.63.24.94.1-.3.2-.61.32-.92.31-.78.85-1.39,1.45-1.96.56-.54,1.13-1.08,1.67-1.65.43-.45.82-.94.96-1.56.11-.51.19-1.04.23-1.56.05-.65-.02-1.29-.16-1.95-1.27.21-2.55.3-3.84.27-1.3-.03-2.58-.18-3.89-.47Z"/>
  <path class="cls-18" d="M27.23,2.52c.07-.02.14-.04.2-.05.62-.02,1.21.06,1.75.39.55.33.83.84.91,1.46.16,1.21-.05,2.35-.65,3.42-.26.46-.6.86-1.08,1.16-.92-1.72-2.18-3.15-3.64-4.42.81-.56,1.55-1.21,2.54-1.4.16-.03.32-.05.51-.08-.04-.31-.31-.35-.53-.42,0-.02,0-.03,0-.05Z"/>
  <path class="cls-12" d="M10.36,2.51c-.19.16-.52.12-.52.49,1.13.09,2.02.67,2.85,1.4-.15.1-.29.2-.43.3-.9.6-1.6,1.39-2.11,2.34-.3.56-.57,1.13-.85,1.69-.02.05-.05.1-.08.16-.29-.17-.53-.38-.72-.64-.58-.75-.93-1.61-1.01-2.55-.04-.47-.03-.96.03-1.43.1-.86.62-1.41,1.44-1.65.35-.1.73-.11,1.1-.15.1-.01.21.03.31.04Z"/>
  <path class="cls-17" d="M18.91,21.56c-1.1-.03-2.12-.31-3.01-.98-.45-.34-.94-.64-1.28-1.1-.61-.83-.88-1.75-.71-2.77.11-.68.49-1.21,1.08-1.55,1.01-.6,2.07-1.09,3.27-1.2,1.51-.15,2.96.03,4.26.84,1.13.7,1.66,1.76,1.53,3.1-.04.42-.19.81-.45,1.14-.81,1.02-1.77,1.86-3.05,2.27-.54.17-1.08.26-1.65.26ZM18.79,21.14c.31-.03.58-.04.84-.09,1.25-.24,2.29-.87,3.19-1.74.35-.34.59-.76.73-1.22.29-.97-.07-2.07-.94-2.75-.82-.64-1.78-.92-2.79-1.02-1-.11-1.97.07-2.91.41-.58.21-1.15.42-1.65.79-.54.41-.93.92-.95,1.62-.02.74.16,1.44.63,2.03.99,1.25,2.32,1.86,3.86,1.98Z"/>
  <path class="cls-8" d="M25.48,12.57c0,.92-.71,1.77-1.72,1.83-1.17.06-1.96-.86-1.96-1.8,0-1.2.97-1.89,1.85-1.88,1.03.01,1.84.87,1.83,1.85ZM24.13,12.16c0-.46-.38-.83-.84-.83-.45,0-.82.37-.83.82,0,.45.38.84.83.84.46,0,.83-.37.83-.83Z"/>
  <path class="cls-13" d="M12.67,12.25c.04-1.05.87-1.84,1.91-1.81,1,.03,1.82.9,1.78,1.89-.04,1.04-.89,1.83-1.93,1.79-.99-.04-1.79-.89-1.76-1.87ZM13.34,11.88c0,.46.37.84.83.84.46,0,.83-.38.83-.84,0-.45-.37-.82-.82-.83-.46,0-.84.37-.84.83Z"/>
  <path class="cls-15" d="M24.38,8.48c.09.03.26.04.38.12.51.34,1.04.66,1.43,1.14.06.07.11.16.13.25.05.17-.06.27-.23.23-.04,0-.08-.03-.12-.04-.61-.26-1.21-.52-1.82-.79-.15-.07-.3-.17-.4-.3-.2-.24-.08-.51.23-.57.11-.02.23-.02.4-.04Z"/>
  <path class="cls-10" d="M13.98,8.02c.12.02.24.02.36.05.23.06.33.28.2.48-.09.13-.21.26-.35.32-.65.3-1.31.58-1.97.86-.07.03-.21.02-.24-.02-.05-.06-.06-.2-.02-.26.13-.19.28-.39.45-.54.31-.26.63-.5.96-.71.17-.11.39-.15.58-.22,0,.01.01.02.02.04Z"/>
  <path class="cls-2" d="M29.69,37.23c-.35,0-.65-.12-.89-.38-.13-.14-.24-.29-.37-.43-.16-.19-.36-.24-.59-.17-.14.04-.27.1-.41.15-.98.38-1.83-.41-1.76-1.38.04-.55.32-.98.66-1.39,1.04-1.25,2.81-1.38,3.95-.31.44.42.69.94.78,1.54.08.48.04.94-.1,1.4-.18.57-.7.96-1.28.96Z"/>
  <path class="cls-7" d="M29.7,30.09c0,.48-.15.9-.52,1.21-.45.38-1.07.33-1.44-.16-.43-.58-.36-1.58.23-2.09.48-.42,1.15-.32,1.49.21.16.25.24.53.24.83Z"/>
  <path class="cls-16" d="M29.77,31.03c.02-.64.29-1.11.81-1.41.65-.37,1.44-.02,1.5.82.05.67-.29,1.33-.85,1.6-.63.3-1.28-.02-1.42-.7-.02-.11-.03-.23-.04-.31Z"/>
  <path class="cls-3" d="M25.29,31.12c0-.56.32-.97.8-1.03.31-.04.58.06.81.26.56.49.72,1.09.42,1.78-.18.4-.69.58-1.12.41-.54-.21-.91-.8-.91-1.41Z"/>
  <path class="cls-19" d="M33.34,32.64c0,.85-.93,1.56-1.75,1.34-.48-.13-.75-.58-.64-1.09.15-.73.88-1.25,1.63-1.15.46.06.76.42.76.89Z"/>
  <path class="cls-11" d="M4.07,35.55c.03-.79.17-1.46.64-2.01,1.03-1.22,3-1.19,4.08.06.35.4.62.85.72,1.39.14.77-.29,1.49-1,1.65-.28.06-.55.02-.82-.1-.14-.06-.28-.13-.41-.19-.23-.1-.44-.07-.62.11-.08.08-.16.16-.24.25-.36.37-.78.56-1.3.41-.53-.15-.85-.52-.98-1.05-.05-.2-.05-.41-.07-.52Z"/>
  <path class="cls-4" d="M8.21,30.25c-.02.34-.09.71-.35,1.01-.4.47-1.03.5-1.47.06-.53-.54-.58-1.46-.12-2.05.41-.54,1.1-.56,1.56-.06.24.27.39.64.39,1.05Z"/>
  <path class="cls-5" d="M5.8,30.84c-.07.22-.12.45-.21.67-.22.5-.87.65-1.33.4-.5-.27-.85-.91-.79-1.47.01-.14.02-.28.06-.41.24-.73,1.01-.95,1.61-.48.38.3.62.8.66,1.3Z"/>
  <path class="cls-6" d="M8.02,31.86c.02-.61.25-1.09.81-1.39.66-.35,1.37.04,1.4.78.03.65-.24,1.16-.82,1.47-.66.36-1.41-.11-1.39-.87Z"/>
  <path class="cls-9" d="M3.52,33.79c-.73,0-1.44-.69-1.42-1.4.01-.62.46-1,1.07-.91.63.09,1.11.53,1.26,1.15.15.63-.26,1.16-.91,1.17Z"/>
  <path class="cls-1" d="M19.26,15.2c.37.06.74.11,1.1.2.39.09.61.37.7.76.15.7.05.95-.58,1.29-.34.19-.71.3-1.11.32-.13,0-.19.05-.19.19.01.33,0,.67.02,1,0,.24.15.39.37.46.54.17,1.02.06,1.41-.36.09-.1.18-.22.27-.32.05-.05.11-.1.18-.12.06-.02.15-.02.18.02.04.03.04.12.03.18-.12.53-.69,1-1.31,1.09-.44.07-.83-.06-1.19-.28-.13-.08-.22-.07-.36,0-.54.29-1.13.4-1.71.16-.34-.14-.57-.42-.71-.76-.01-.04,0-.1.02-.13.03-.03.1-.04.13-.03.13.09.27.18.38.3.31.35.69.45,1.13.34.41-.1.66-.36.71-.78.03-.28,0-.57,0-.85,0-.1-.05-.14-.15-.16-.21-.04-.43-.09-.64-.15-.58-.16-.95-.66-.87-1.18.06-.41.3-.68.66-.86.49-.24,1.01-.29,1.55-.34Z"/>
</svg>