<?xml version="1.0" encoding="UTF-8"?>
<svg id="Layer_1" data-name="Layer 1" xmlns="http://www.w3.org/2000/svg" xmlns:xlink="http://www.w3.org/1999/xlink" viewBox="0 0 39.99 35.48">
  <defs>
    <style>
      .cls-1 {
        fill: url(#linear-gradient);
      }

      .cls-1, .cls-2, .cls-3 {
        stroke-width: 0px;
      }

      .cls-2 {
        fill: #000;
      }

      .cls-3 {
        fill: url(#linear-gradient-2);
      }
    </style>
    <linearGradient id="linear-gradient" x1="19.99" y1="35.23" x2="20.12" y2="-.56" gradientUnits="userSpaceOnUse">
      <stop offset="0" stop-color="#ffbd5f"/>
      <stop offset="1" stop-color="#ffdb6e"/>
    </linearGradient>
    <linearGradient id="linear-gradient-2" x1="19.99" y1="32.63" x2="20.1" y2="3.91" xlink:href="#linear-gradient"/>
  </defs>
  <path class="cls-1" d="M0,33.22c.64-1.51,1.57-2.86,2.35-4.29.79-1.43,1.61-2.84,2.42-4.25,4.48-7.85,8.97-15.69,13.45-23.54.3-.53.71-.93,1.31-1.07.87-.21,1.7.16,2.15.94.57.99,1.14,1.98,1.7,2.98,4.34,7.6,8.69,15.2,13.03,22.8,1.1,1.92,2.19,3.84,3.3,5.77.13.22.19.47.28.7v.63c-.09.63-.46,1.08-.99,1.4-.2.12-.42.17-.64.2H1.6c-.63-.09-1.08-.46-1.4-.99-.11-.19-.16-.4-.2-.61v-.67Z"/>
  <path class="cls-2" d="M19.99,34.51c-6,0-12,0-17.99,0-.61,0-1.05-.45-1.02-1.02,0-.19.08-.35.18-.51,1.93-3.37,3.86-6.75,5.78-10.12C10.99,15.75,15.05,8.65,19.1,1.54c.35-.62,1.04-.71,1.48-.38.14.1.23.24.31.39,3.05,5.33,6.09,10.67,9.14,16,2.93,5.12,5.85,10.24,8.78,15.36.16.27.27.55.19.87-.1.42-.47.72-.9.74-.06,0-.11,0-.17,0-5.98,0-11.96,0-17.94,0Z"/>
  <path class="cls-3" d="M3.61,32.57C9.07,23,14.53,13.46,19.98,3.91c.07.04.08.1.11.14,3.53,6.18,7.07,12.37,10.6,18.55q.1.17-.09.17c-2.52,0-5.04,0-7.56,0,0,0-.01,0-.02,0-.05-.02-.15.04-.15-.04,0-.08.09-.06.14-.07.83-.2,1.66-.39,2.49-.58.14-.03.2-.07.14-.23-.06-.14-.04-.35-.14-.41-.1-.07-.27.06-.42.1-.74.22-1.49.44-2.23.68-.14.05-.15-.04-.19-.12-.05-.1-.03-.14.07-.19,1.62-.85,3.24-1.71,4.87-2.57.13-.07.16-.12.07-.25-.1-.15-.19-.31-.27-.47-.06-.12-.1-.14-.23-.06-1.54.98-3.09,1.94-4.63,2.91-.15.09-.23.06-.31-.1-.04-.08.04-.09.07-.13.63-.59,1.25-1.18,1.89-1.76.13-.12.12-.19,0-.29-.08-.06-.15-.13-.21-.21-.08-.1-.13-.08-.2,0-.59.64-1.19,1.27-1.78,1.92-.09.1-.14.08-.23.02-.12-.08-.08-.14-.03-.22.97-1.55,1.95-3.1,2.92-4.65.07-.12.07-.17-.06-.23-.16-.08-.32-.17-.48-.27-.12-.08-.18-.07-.25.07-.85,1.61-1.7,3.23-2.55,4.84-.05.1-.09.16-.22.09-.11-.05-.13-.09-.1-.21.26-.83.51-1.66.77-2.49.04-.12.02-.17-.1-.19-.12-.02-.24-.06-.35-.09-.1-.03-.13,0-.16.1-.19.85-.4,1.71-.59,2.56-.03.14-.09.14-.2.13-.13,0-.13-.07-.13-.17.07-1.84.14-3.67.21-5.51,0-.13-.03-.16-.15-.15-.21,0-.42,0-.63,0-.08,0-.12.01-.11.11.06,1.48.11,2.96.17,4.45.01.37.03.74.04,1.12,0,.09,0,.16-.12.17-.1,0-.18.03-.21-.12-.19-.85-.4-1.71-.59-2.56-.02-.11-.05-.14-.16-.1-.11.04-.23.07-.35.09-.11.02-.14.06-.1.18.26.82.5,1.65.76,2.48.05.15-.02.25-.18.26-.08,0-.08-.07-.1-.11-.42-.79-.84-1.59-1.26-2.38-.44-.83-.88-1.66-1.32-2.5-.06-.12-.11-.13-.22-.06-.16.11-.33.2-.5.29-.12.06-.12.11-.05.22.98,1.55,1.95,3.11,2.93,4.66.06.1.06.15-.04.22-.1.08-.15.06-.23-.03-.59-.64-1.18-1.27-1.77-1.9-.08-.09-.13-.11-.21,0-.1.12-.31.23-.31.35,0,.14.21.24.33.35.55.52,1.1,1.03,1.66,1.55.08.08.1.12.02.21-.07.08-.1.13-.22.06-1.54-.98-3.09-1.94-4.63-2.91q-.17-.11-.28.07c-.09.16-.18.32-.28.47-.06.1-.05.14.05.19.86.45,1.72.9,2.57,1.36.77.41,1.55.82,2.32,1.23.1.05.12.09.07.2-.04.09-.07.15-.2.11-.81-.26-1.63-.5-2.45-.75-.2-.06-.2-.06-.26.15-.03.1-.05.19-.08.29-.03.1,0,.13.1.15.85.19,1.7.39,2.54.59.15.04.21.16.13.3-.03.06-.09.03-.13.03-.72-.02-1.43-.05-2.15-.08-1.13-.04-2.26-.08-3.4-.13-.09,0-.14,0-.14.12,0,.22,0,.44,0,.67,0,.09.02.11.11.11,1.24-.05,2.48-.09,3.71-.14.62-.02,1.24-.04,1.86-.08.13,0,.13.06.14.15.01.08.03.15-.1.18-.86.19-1.72.4-2.58.59-.11.02-.15.06-.11.17.04.11.07.23.09.35.02.12.07.13.18.09.83-.26,1.66-.5,2.49-.76.13-.04.16,0,.21.11.05.11.02.15-.08.2-1.61.85-3.22,1.7-4.84,2.55-.18.1-.18.09-.07.28.09.16.19.31.27.48.05.11.1.11.2.05,1.24-.78,2.48-1.56,3.72-2.34.32-.2.64-.4.96-.6.11-.08.16-.04.23.05.08.09.05.14-.02.21-.64.59-1.27,1.19-1.91,1.78-.09.08-.1.13,0,.21.12.1.23.31.35.31.14,0,.24-.21.35-.33.52-.55,1.03-1.1,1.55-1.66.07-.08.12-.1.21-.02.09.08.12.12.05.23-.98,1.55-1.95,3.1-2.93,4.65-.08.13-.07.18.06.24.17.08.34.18.5.29.1.07.14.05.19-.05.37-.72.75-1.43,1.13-2.15.48-.92.97-1.83,1.45-2.75.04-.08.07-.15.18-.08.08.05.18.04.13.2-.26.82-.5,1.64-.76,2.46-.04.14-.05.22.13.24.11.01.22.05.32.09.1.04.13,0,.15-.09.19-.85.39-1.71.59-2.56.02-.08,0-.18.14-.14.1.03.2,0,.19.19-.08,1.83-.14,3.66-.21,5.49,0,.13.02.17.16.17.2-.01.41,0,.62,0,.09,0,.12-.02.12-.12-.04-.89-.07-1.79-.1-2.68-.04-.96-.07-1.92-.11-2.88,0-.18.11-.13.2-.16.12-.04.12.06.13.13.2.85.4,1.7.59,2.56.03.13.08.13.18.1.15-.05.37-.03.44-.15.07-.12-.06-.3-.11-.45-.22-.73-.44-1.45-.67-2.18-.04-.14.02-.16.12-.21.12-.06.15,0,.19.08.86,1.62,1.72,3.24,2.57,4.87.07.13.12.14.23.06.16-.11.33-.2.5-.29.11-.06.12-.1.05-.21-.72-1.14-1.44-2.28-2.15-3.42-.26-.41-.51-.83-.78-1.24-.08-.12-.05-.16.05-.25.12-.1.16-.02.22.05.59.63,1.19,1.26,1.77,1.9.08.08.12.09.2,0,.11-.12.24-.23.37-.35-.68-.64-1.34-1.26-2-1.87-.13-.12-.12-.24.02-.33.07-.04.1.02.14.05.92.57,1.83,1.15,2.75,1.72.64.4,1.29.8,1.93,1.21.11.07.15.06.21-.05.09-.18.19-.35.3-.52.08-.11.04-.16-.07-.21-1.51-.79-3.02-1.59-4.53-2.39-.12-.06-.24-.14-.37-.19-.12-.05-.08-.11-.05-.19.03-.09.05-.15.18-.11.84.26,1.69.51,2.53.78.12.04.16.01.18-.1.03-.16.15-.35.09-.46-.06-.12-.29-.1-.44-.14-.74-.18-1.48-.35-2.22-.52-.03,0-.06-.01-.1-.02-.02,0-.04-.02-.04-.05,0-.03.02-.04.05-.04.04,0,.08,0,.12,0,2.71,0,5.42,0,8.13,0,.11,0,.17.03.22.12,1.64,2.88,3.29,5.76,4.93,8.64.02.04.04.08.07.13H3.61Z"/>
</svg>