<?xml version="1.0" encoding="utf-8"?>
<!-- Generator: Adobe Illustrator 28.3.0, SVG Export Plug-In . SVG Version: 6.00 Build 0)  -->
<svg version="1.1" id="Capa_1" xmlns="http://www.w3.org/2000/svg" xmlns:xlink="http://www.w3.org/1999/xlink" x="0px" y="0px"
	 viewBox="0 0 800 800" style="enable-background:new 0 0 800 800;" xml:space="preserve">
<style type="text/css">
	.st0{fill:url(#SVGID_1_);stroke:#000000;stroke-miterlimit:10;}
	.st1{fill:url(#SVGID_00000030471976645266515520000011473486104099306398_);stroke:#000000;stroke-miterlimit:10;}
	.st2{fill:url(#SVGID_00000168834352258263349450000004605114743571978390_);stroke:#000000;stroke-miterlimit:10;}
	.st3{fill:url(#SVGID_00000071544005673538871560000001883700549067509393_);stroke:#000000;stroke-miterlimit:10;}
</style>
<g>
	<g>
		<linearGradient id="SVGID_1_" gradientUnits="userSpaceOnUse" x1="116.6096" y1="790.9152" x2="122.7372" y2="7.596">
			<stop  offset="0" style="stop-color:#FFDB6E"/>
			<stop  offset="1" style="stop-color:#FFBD5F"/>
			<stop  offset="1" style="stop-color:#000000"/>
		</linearGradient>
		<circle class="st0" cx="120" cy="352.1" r="50.3"/>
		
			<linearGradient id="SVGID_00000090982191583980428690000009952708870870363839_" gradientUnits="userSpaceOnUse" x1="116.6096" y1="790.9152" x2="122.7372" y2="7.596">
			<stop  offset="0" style="stop-color:#FFDB6E"/>
			<stop  offset="1" style="stop-color:#FFBD5F"/>
			<stop  offset="1" style="stop-color:#000000"/>
		</linearGradient>
		<path style="fill:url(#SVGID_00000090982191583980428690000009952708870870363839_);stroke:#000000;stroke-miterlimit:10;" d="
			M240.1,352.1c0-66.2-53.9-120-120-120c-66.1,0-120,53.9-120,120s53.9,120,120,120S240.1,418.3,240.1,352.1z M120,443.7
			c-50.5,0-91.6-41.1-91.6-91.6s41.1-91.6,91.6-91.6c50.5,0,91.6,41.1,91.6,91.6S170.5,443.7,120,443.7z"/>
		
			<linearGradient id="SVGID_00000003102580910085013480000010872942399873408445_" gradientUnits="userSpaceOnUse" x1="355.8919" y1="312.7719" x2="354.8707" y2="73.7932">
			<stop  offset="0" style="stop-color:#FFDB6E"/>
			<stop  offset="1" style="stop-color:#FFBD5F"/>
			<stop  offset="1" style="stop-color:#000000"/>
		</linearGradient>
		<path style="fill:url(#SVGID_00000003102580910085013480000010872942399873408445_);stroke:#000000;stroke-miterlimit:10;" d="
			M256.4,428c-5.8,16.1-15,31.2-27.8,44.1c-13.9,13.8-30.3,23.4-47.7,29.1l131.3,131.4h-25.4v92.3h246.4v-92.3h-72.4L256.4,428z"/>
		
			<linearGradient id="SVGID_00000156547902798767116700000000643372851727322245_" gradientUnits="userSpaceOnUse" x1="515.7299" y1="794.0374" x2="521.8575" y2="10.7182">
			<stop  offset="0" style="stop-color:#FFDB6E"/>
			<stop  offset="1" style="stop-color:#FFBD5F"/>
			<stop  offset="1" style="stop-color:#000000"/>
		</linearGradient>
		<path style="fill:url(#SVGID_00000156547902798767116700000000643372851727322245_);stroke:#000000;stroke-miterlimit:10;" d="
			M796.6,222.4c-4.7-4.7-12.3-4.9-17-0.2L669.9,329.4l-80.7-42.3l-21.2-92.2l54-73.3l145.3,48.6c2.2,0.7,4.5,0.8,6.6,0.3
			c3.9-0.9,7.3-3.8,8.7-7.9c2.2-6.3-1.2-13.2-7.5-15.3L621.5,95.8c-5-1.7-10.4,0-13.5,4.3l-49.2,66.6l-40.6,9.3l5.7,24.8L240,266
			c10.5,13.5,18.5,29.3,22.5,47.1c4.4,19,3.9,38-0.6,55.9l285.5-65.6l5.7,24.8l43.2-9.9l-0.1-0.2l70.2,36.9c2.7,1.4,5.6,1.7,8.3,1
			c2.1-0.5,4.2-1.5,5.7-3.1l115.9-113.4C801.1,234.9,801.2,227.2,796.6,222.4z"/>
	</g>
</g>
</svg>
