<?xml version="1.0" encoding="UTF-8"?>
<svg id="Layer_1" data-name="Layer 1" xmlns="http://www.w3.org/2000/svg" xmlns:xlink="http://www.w3.org/1999/xlink" viewBox="0 0 39.68 33.86">
  <defs>
    <style>
      .cls-1 {
        fill: url(#New_Gradient_Swatch_1);
        stroke: #000;
        stroke-miterlimit: 10;
        stroke-width: .25px;
      }
    </style>
    <linearGradient id="New_Gradient_Swatch_1" data-name="New Gradient Swatch 1" x1="19.87" y1="35.53" x2="19.8" y2="-2.45" gradientUnits="userSpaceOnUse">
      <stop offset="0" stop-color="#ffbc5e"/>
      <stop offset="1" stop-color="#ffdb6e"/>
    </linearGradient>
  </defs>
  <path class="cls-1" d="M39.56,17.58v8.63c-.37.12-.73.34-1.1.36-1.29.04-2.59.02-3.84.02-.05.19-.08.24-.08.29,0,1.19,0,2.39-.01,3.58-.02,1.98-1.29,3.27-3.26,3.27-7.74,0-15.48,0-23.22,0-.32,0-.66-.02-.96-.11-1.35-.38-2.23-1.52-2.25-2.94-.02-1.34,0-2.69,0-4.09-1.22,0-2.3,0-3.39,0-1.23,0-1.32-.08-1.32-1.28,0-2.31,0-4.62,0-6.92,0-1.1.15-1.24,1.29-1.25,1.11,0,2.21,0,3.41,0,0-1.25.07-2.42-.02-3.57-.16-2.12,1.39-3.63,3.56-3.59,3.01.06,6.03.02,9.04.02.4,0,.8,0,1.29,0,0-1.1-.02-2.13,0-3.15.01-.5-.09-.81-.59-1.07-1.08-.56-1.7-1.9-1.5-3.02.26-1.48,1.4-2.55,2.8-2.63,1.51-.08,2.79.77,3.19,2.12.43,1.44-.14,2.81-1.48,3.61-.19.11-.46.3-.46.47-.04,1.21-.02,2.42-.02,3.67.45,0,.78,0,1.1,0,3.04,0,6.08,0,9.12,0,.51,0,1.04.03,1.53.18,1.29.4,2.11,1.56,2.13,2.95.02,1.32,0,2.64,0,4.01,1.38,0,2.63-.03,3.87.02.39.02.77.27,1.16.42ZM19.85,28.49c2.06,0,4.12,0,6.18,0,1.11,0,1.52-.39,1.52-1.42,0-1.04-.42-1.47-1.49-1.47-4.15,0-8.3,0-12.45,0-1.06,0-1.49.44-1.48,1.48,0,1,.42,1.41,1.45,1.41,2.09,0,4.18,0,6.27,0ZM28.49,18.46c0-1.72-1.37-3.14-3.05-3.15-1.76,0-3.18,1.38-3.17,3.11,0,1.78,1.37,3.14,3.14,3.13,1.73-.01,3.09-1.37,3.09-3.1ZM17.42,18.42c-.01-1.72-1.4-3.11-3.09-3.11-1.76,0-3.15,1.39-3.13,3.14.01,1.77,1.4,3.12,3.17,3.1,1.72-.02,3.07-1.41,3.06-3.13Z"/>
</svg>