<?xml version="1.0" encoding="UTF-8"?>
<svg id="Capa_1" data-name="Capa 1" xmlns="http://www.w3.org/2000/svg" xmlns:xlink="http://www.w3.org/1999/xlink" viewBox="0 0 801 740.9">
  <defs>
    <style>
      .cls-1 {
        fill: url(#linear-gradient);
        stroke: #000;
        stroke-miterlimit: 10;
      }
    </style>
    <linearGradient id="linear-gradient" x1="397.5" y1="729.15" x2="401.59" y2="-28.63" gradientUnits="userSpaceOnUse">
      <stop offset="0" stop-color="#ffbd5f"/>
      <stop offset="1" stop-color="#ffdb6e"/>
    </linearGradient>
  </defs>
  <path class="cls-1" d="M35.2,689.17c-.75-17.56,2.53-32.89,23.61-36.37v-230.43c-11.22-6.8-22.65-12.47-32.65-20.03-23.15-17.5-21.32-37.54,4.59-50.29,22.7-11.17,46.14-20.85,68.88-31.94,9.64-4.7,18.33-11.34,27.54-17.15-17.33-8.8-34.74-15.46-49.66-25.73-24.59-16.93-22.11-37.51,4.42-50.69,28.58-14.21,57.18-28.39,85.7-42.72,2.47-1.24,4.4-3.55,4.48-3.62-19.48-9.69-40.47-17.56-58.54-29.76-23.37-15.77-20.6-35.72,4.82-48.6,14.51-7.35,29.36-14.09,44.31-20.51,36.8-15.8,67.9-38.63,92.51-70.61,4.27-5.55,13.6-10.22,20.59-10.22,73.13-.02,146.27.69,219.39,2.13,8,.16,18.81,3.82,23.35,9.69,28.83,37.28,66.16,60.95,110.62,74.9,13.75,4.31,27.12,10.11,40.24,16.14,19.33,8.88,22.56,27.14,7,41.95-17.44,16.61-37.75,27.9-62.7,28.72-5.2.17-10.37,1.27-16.87,6,14.07,7.36,27.77,15.59,42.31,21.86,21.57,9.3,43.98,16.63,65.58,25.85,22.86,9.76,26.56,29.52,6.95,44.81-15.77,12.29-34.6,20.65-54.01,31.87,14.02,7.46,28.26,16.3,43.49,22.85,22.12,9.51,45.03,17.15,67.45,25.98,19.92,7.85,24.31,28.49,8.8,43.19-6.91,6.55-14.92,13.15-23.66,16.3-14.26,5.13-16.08,14.33-15.97,27.66.58,70.1.27,140.21.27,211.68,17.38,5.76,28.81,16.31,22.3,36.89,26.66,7.76,34.87,28.79,17.5,44.75-4.27,3.92-11.65,6.26-17.6,6.26-241.19.31-482.38.19-723.56.42-15.99.02-24.04-8.91-25.8-22.32-2.16-16.43,9.22-24.67,24.31-28.9ZM674.47,375.84c-26.21-21.37-53.82-44.3-82.02-66.47-5.09-4-12.62-6.9-19.04-6.92-120.83-.4-241.67-.36-362.5-.12-5.63.01-12.59,1.03-16.67,4.35-28.58,23.25-56.57,47.22-82.61,69.16h562.84ZM499.79,614.84c0-28.58,1.52-55.23-.29-81.65-5.31-77.7,35.53-95.51,94.96-94.07,33.25.8,70.33,37.24,68.12,68.49-2.5,35.33-.58,70.98-.58,107.28h23.9v-186.47H111.33v186.4h24.05c0-38.35-.27-75.72.09-113.07.28-28.86,30.36-60,59.06-61.1,15.08-.58,30.27-.35,45.32.69,29.19,2.02,56.57,30.72,57.42,60.19.94,32.63.85,65.3,1.91,97.93.17,5.32,3.98,10.53,6.11,15.79,2.05-5.51,5.73-10.98,5.88-16.54.82-30.82,1.76-61.7.69-92.49-.72-20.87,8.71-35.59,22.33-49.25,20.35-20.41,46.48-17.49,71.66-17.69,37.16-.29,67.47,30.25,67.73,67.52.15,21.77.27,43.54.36,65.3.05,14.17.01,28.35.01,42.75h25.84ZM161.62,250.91h455.4c-35.21-16.85-62.35-42.96-89.47-69.32-3.61-3.51-10.9-4.49-16.49-4.51-83.38-.27-166.76-.32-250.13.08-5.87.03-12.8,2.6-17.4,6.28-27.95,22.41-55.36,45.48-81.9,67.46ZM582.66,125.16c-3.82-2.94-5.36-4.68-7.29-5.52-32.63-14.17-60.36-34.7-83.69-61.68-3.86-4.47-12.37-6.8-18.77-6.88-46.46-.57-92.99,1.02-139.39-.78-30.21-1.17-54.27,3.21-75.8,28.65-16.33,19.29-41.71,30.92-63.43,46.21h388.38ZM610.93,615.1c0-30.44,0-59.2,0-87.96-.02-38.76-1.16-39.82-40.69-37.78-1.2.06-2.4.11-3.61.12-12.08.09-17.22,6.45-17.13,18.22.13,18.05-.13,36.1-.16,54.15-.04,17.74,0,35.48,0,53.25h61.6ZM421.95,614.77c.66-3.75,1.24-5.51,1.25-7.28.11-25.89.21-51.78.18-77.67-.06-41.27-4.76-45.34-45.97-40.29-1.19.15-2.81-.23-3.52.42-4.16,3.73-11.5,7.62-11.59,11.6-.89,37.62-.53,75.27-.53,113.22h60.18ZM247.6,614.77c0-37.61.29-74.3-.39-110.97-.08-4.18-5.24-11.5-8.59-11.83-14.2-1.39-28.64-1.31-42.89-.29-3.23.23-8.59,6.37-8.65,9.86-.63,37.74-.39,75.5-.39,113.23h60.91Z"/>
</svg>