<?xml version="1.0" encoding="UTF-8"?>
<svg id="Capa_1" data-name="Capa 1" xmlns="http://www.w3.org/2000/svg" xmlns:xlink="http://www.w3.org/1999/xlink" viewBox="0 0 801 753.58">
  <defs>
    <style>
      .cls-1 {
        fill: url(#linear-gradient);
        stroke: #000;
        stroke-miterlimit: 10;
      }
    </style>
    <linearGradient id="linear-gradient" x1="395.01" y1="732.59" x2="407.26" y2="-260.09" gradientUnits="userSpaceOnUse">
      <stop offset="0" stop-color="#ffbd5f"/>
      <stop offset="1" stop-color="#ffdb6e"/>
    </linearGradient>
  </defs>
  <path class="cls-1" d="M.5,563.63V11.63C4.32,3.14,10.92.5,20.1.5c253.6.16,507.2.16,760.8,0,9.18,0,15.76,2.66,19.6,11.13v552c-3.49,8.43-9.69,11.41-18.85,11.39-91.48-.23-182.96-.14-274.44-.14h-6.45v115.04h191.29v60.31H111.87v-60.54h188.24v-114.81c-2.53,0-4.68,0-6.82,0-91.31,0-182.63-.09-273.94.14-9.15.02-15.37-2.94-18.85-11.39ZM398.99,516.49c109.15,0,218.3,0,327.45,0,12.8,0,17.12-4.27,17.12-16.95,0-143.64,0-287.29,0-430.93,0-12.42-4.42-16.88-16.74-16.88-218.46,0-436.93,0-655.39,0-12.35,0-16.93,4.54-16.93,16.74,0,143.64,0,287.29,0,430.93,0,12.68,4.39,17.09,17.04,17.09,109.15,0,218.3,0,327.45,0Z"/>
</svg>